<?xml version="1.0" encoding="UTF-8"?><svg id="Layer_1" xmlns="http://www.w3.org/2000/svg" xmlns:xlink="http://www.w3.org/1999/xlink" viewBox="0 0 16 16"><defs><style>.cls-1{clip-path:url(#clippath);}.cls-2,.cls-3,.cls-4{fill:none;}.cls-2,.cls-5,.cls-6,.cls-7,.cls-8,.cls-9{stroke-width:0px;}.cls-10,.cls-4{opacity:.15;}.cls-11{opacity:.5;}.cls-3{stroke:#fff;stroke-width:.92px;}.cls-3,.cls-4{stroke-linecap:round;stroke-miterlimit:10;}.cls-4{stroke:#1b1464;stroke-width:.96px;}.cls-5{fill:#4557d8;}.cls-6{fill:#3083fc;}.cls-7{fill:#1b1464;}.cls-8{fill:#fff;}.cls-9{fill:#e9f3ff;}</style><clipPath id="clippath"><rect class="cls-2" width="16" height="16"/></clipPath></defs><rect class="cls-9" width="16" height="16"/><g class="cls-1"><path class="cls-6" d="m8.59,2.45h5.62c.71,0,1.29.58,1.29,1.29v5.06c0,1.51-1.23,2.74-2.74,2.74h-4.17c-1.51,0-2.74-1.23-2.74-2.74v-3.6c0-1.51,1.23-2.74,2.74-2.74Z"/><rect class="cls-6" x=".5" y="2.45" width="9.66" height="9.09" rx="1.29" ry="1.29"/><rect class="cls-5" x="2.29" y="1.62" width="11.42" height="10.75" rx="1.29" ry="1.29"/><circle class="cls-5" cx="6.47" cy="13.91" r=".47"/><g class="cls-11"><circle class="cls-5" cx="8" cy="13.91" r=".47"/></g><g class="cls-11"><circle class="cls-5" cx="9.53" cy="13.91" r=".47"/></g><line class="cls-4" x1="5.54" y1="9.3" x2="8.91" y2="9.3"/><line class="cls-4" x1="5.58" y1="10.36" x2="10.86" y2="10.36"/><g class="cls-10"><path class="cls-7" d="m10.77,3.39h-5.14c-.39,0-.7.31-.7.7v3.27c0,.39.31.7.7.7h5.14c.39,0,.7-.31.7-.7v-3.27c0-.39-.31-.7-.7-.7Zm.24,2.71l-1.47-1.47c-.09-.09-.24-.09-.33,0l-1.94,1.94-.77-.77c-.09-.09-.24-.09-.33,0l-.77.77v-2.47c0-.13.1-.23.23-.23h5.15c.13,0,.23.1.23.23v2.01h0Z"/><circle class="cls-7" cx="7.02" cy="5.02" r=".7"/></g><path class="cls-8" d="m10.55,3.16h-5.14c-.39,0-.7.31-.7.7v3.27c0,.39.31.7.7.7h5.14c.39,0,.7-.31.7-.7v-3.27c0-.39-.31-.7-.7-.7Zm.24,2.71l-1.47-1.47c-.09-.09-.24-.09-.33,0l-1.94,1.94-.77-.77c-.09-.09-.24-.09-.33,0l-.77.77v-2.47c0-.13.1-.23.23-.23h5.15c.13,0,.23.1.23.23v2.01h0Z"/><circle class="cls-8" cx="6.8" cy="4.63" r=".7"/><line class="cls-3" x1="5.31" y1="9.08" x2="8.69" y2="9.08"/><line class="cls-3" x1="5.36" y1="10.13" x2="10.64" y2="10.13"/></g></svg>